<svg width="25" height="25" viewBox="0 0 25 25" fill="none" xmlns="http://www.w3.org/2000/svg">
<path d="M23.3326 12.3851C23.3832 12.2628 23.3832 12.1255 23.3326 12.0031C23.3077 11.942 23.2707 11.8865 23.2236 11.8401L19.2236 7.84014C19.1775 7.79239 19.1223 7.7543 19.0613 7.72809C19.0003 7.70189 18.9347 7.6881 18.8683 7.68752C18.8019 7.68694 18.7361 7.69959 18.6746 7.72473C18.6132 7.74987 18.5574 7.787 18.5104 7.83395C18.4635 7.88089 18.4264 7.93672 18.4012 7.99817C18.3761 8.05962 18.3634 8.12546 18.364 8.19184C18.3646 8.25823 18.3784 8.32384 18.4046 8.38485C18.4308 8.44585 18.4689 8.50102 18.5166 8.54714L21.6636 11.6941H2.89062C2.75802 11.6941 2.63084 11.7468 2.53707 11.8406C2.4433 11.9344 2.39063 12.0615 2.39062 12.1941C2.39062 12.3268 2.4433 12.4539 2.53707 12.5477C2.63084 12.6415 2.75802 12.6941 2.89062 12.6941H21.6636L18.5176 15.8411C18.4265 15.9354 18.3761 16.0617 18.3773 16.1928C18.3784 16.3239 18.431 16.4494 18.5237 16.5421C18.6164 16.6348 18.7418 16.6873 18.8729 16.6885C19.004 16.6896 19.1303 16.6392 19.2246 16.5481L23.2246 12.5481C23.2715 12.5019 23.3083 12.4464 23.3326 12.3851Z" fill="white"/>
</svg>
