<svg width="20" height="12" viewBox="0 0 20 12" fill="none" xmlns="http://www.w3.org/2000/svg">
<path fill-rule="evenodd" clip-rule="evenodd" d="M18.3522 4.95316C18.6404 4.95316 18.8742 4.71928 18.8742 4.43112V1.29889C18.8742 1.23103 18.8607 1.16316 18.8335 1.09947C18.7813 0.972098 18.679 0.869778 18.5516 0.817574C18.4879 0.790428 18.4201 0.776855 18.3522 0.776855H15.22C14.9318 0.776855 14.6979 1.01073 14.6979 1.29889C14.6979 1.58706 14.9318 1.82093 15.22 1.82093H17.092L11.0437 7.86926L8.28104 5.10559C8.08998 4.91557 7.78511 4.902 7.57734 5.07427L1.31289 10.2946C1.09154 10.4784 1.06126 10.8083 1.24606 11.0297C1.34943 11.1539 1.49769 11.2176 1.64699 11.2176C1.76497 11.2176 1.884 11.1779 1.98109 11.0965L7.87908 6.18099L10.6741 8.97702C10.8787 9.18062 11.2086 9.18062 11.4133 8.97702L17.8302 2.55909V4.43112C17.8302 4.71928 18.064 4.95316 18.3522 4.95316Z" fill="url(#paint0_linear)" stroke="#1A8DE9" stroke-width="0.6"/>
<defs>
<linearGradient id="paint0_linear" x1="18.7136" y1="11.1433" x2="0.501898" y2="8.91006" gradientUnits="userSpaceOnUse">
<stop stop-color="#197ACF"/>
<stop offset="1" stop-color="#1A8DE9"/>
</linearGradient>
</defs>
</svg>
