<svg width="14" height="12" viewBox="0 0 14 12" fill="none" xmlns="http://www.w3.org/2000/svg">
<path fill-rule="evenodd" clip-rule="evenodd" d="M2.42255 2.83827H5.32486C5.48507 2.83827 5.61509 2.70825 5.61509 2.54804C5.61509 2.38784 5.48507 2.25781 5.32486 2.25781H2.42255C2.26235 2.25781 2.13232 2.38784 2.13232 2.54804C2.13232 2.70825 2.26235 2.83827 2.42255 2.83827Z" fill="#197ACF"/>
<path fill-rule="evenodd" clip-rule="evenodd" d="M2.42255 4.58046H5.32486C5.48507 4.58046 5.61509 4.45044 5.61509 4.29023C5.61509 4.13002 5.48507 4 5.32486 4H2.42255C2.26235 4 2.13232 4.13002 2.13232 4.29023C2.13232 4.45044 2.26235 4.58046 2.42255 4.58046Z" fill="#197ACF"/>
<path fill-rule="evenodd" clip-rule="evenodd" d="M2.42255 6.31874H5.32486C5.48507 6.31874 5.61509 6.18872 5.61509 6.02851C5.61509 5.8683 5.48507 5.73828 5.32486 5.73828H2.42255C2.26235 5.73828 2.13232 5.8683 2.13232 6.02851C2.13232 6.18872 2.26235 6.31874 2.42255 6.31874Z" fill="#197ACF"/>
<path fill-rule="evenodd" clip-rule="evenodd" d="M5.32486 7.48047H2.42255C2.26235 7.48047 2.13232 7.61049 2.13232 7.7707C2.13232 7.93091 2.26235 8.06093 2.42255 8.06093H5.32486C5.48507 8.06093 5.61509 7.93091 5.61509 7.7707C5.61509 7.61049 5.48507 7.48047 5.32486 7.48047Z" fill="#197ACF"/>
<path fill-rule="evenodd" clip-rule="evenodd" d="M8.227 2.83827H11.1293C11.2895 2.83827 11.4195 2.70825 11.4195 2.54804C11.4195 2.38784 11.2895 2.25781 11.1293 2.25781H8.227C8.06679 2.25781 7.93677 2.38784 7.93677 2.54804C7.93677 2.70825 8.06679 2.83827 8.227 2.83827Z" fill="#197ACF"/>
<path fill-rule="evenodd" clip-rule="evenodd" d="M8.227 4.58046H11.1293C11.2895 4.58046 11.4195 4.45044 11.4195 4.29023C11.4195 4.13002 11.2895 4 11.1293 4H8.227C8.06679 4 7.93677 4.13002 7.93677 4.29023C7.93677 4.45044 8.06679 4.58046 8.227 4.58046Z" fill="#197ACF"/>
<path fill-rule="evenodd" clip-rule="evenodd" d="M8.227 6.31874H11.1293C11.2895 6.31874 11.4195 6.18872 11.4195 6.02851C11.4195 5.8683 11.2895 5.73828 11.1293 5.73828H8.227C8.06679 5.73828 7.93677 5.8683 7.93677 6.02851C7.93677 6.18872 8.06679 6.31874 8.227 6.31874Z" fill="#197ACF"/>
<path fill-rule="evenodd" clip-rule="evenodd" d="M8.227 8.06093H11.1293C11.2895 8.06093 11.4195 7.93091 11.4195 7.7707C11.4195 7.61049 11.2895 7.48047 11.1293 7.48047H8.227C8.06679 7.48047 7.93677 7.61049 7.93677 7.7707C7.93677 7.93091 8.06679 8.06093 8.227 8.06093Z" fill="#197ACF"/>
<path fill-rule="evenodd" clip-rule="evenodd" d="M6.48571 2.54724V9.84131C6.11015 9.45531 5.59238 9.22254 5.03456 9.22254H0.97133L0.97133 1.09609H5.03456C5.83443 1.09609 6.48571 1.74736 6.48571 2.54724ZM8.51732 1.09609L12.5806 1.09609V9.22254H8.51732C7.94905 9.22254 7.43534 9.45879 7.06617 9.83667V2.54724C7.06617 1.74736 7.71745 1.09609 8.51732 1.09609ZM0.6811 9.803H5.03456C5.61444 9.803 6.13801 10.1495 6.36846 10.6859C6.44624 10.8658 6.48571 11.0574 6.48571 11.2542C6.48571 11.4144 6.61573 11.5444 6.77594 11.5444C6.93615 11.5444 7.06617 11.4144 7.06617 11.2542C7.06617 10.4543 7.71745 9.803 8.51732 9.803H12.8708C13.031 9.803 13.161 9.67298 13.161 9.51277V0.805856C13.161 0.645648 13.031 0.515625 12.8708 0.515625L8.51732 0.515625C7.77433 0.515625 7.13002 0.920787 6.77594 1.5175C6.42186 0.920787 5.77755 0.515625 5.03456 0.515625L0.6811 0.515625C0.520892 0.515625 0.390869 0.645648 0.390869 0.805856L0.390869 9.51277C0.390869 9.67298 0.520892 9.803 0.6811 9.803Z" fill="#197ACF"/>
</svg>
