<svg width="13" height="13" viewBox="0 0 13 13" fill="none" xmlns="http://www.w3.org/2000/svg">
<path fill-rule="evenodd" clip-rule="evenodd" d="M11.9242 7.09351C11.9242 7.5558 11.549 7.93201 11.0877 7.93201H10.3809V3.91367H11.0872C11.549 3.91367 11.9242 4.28989 11.9242 4.75218V7.093V7.09351ZM6.35444 11.7245C6.07494 11.7245 5.84809 11.4977 5.84809 11.2182C5.84809 10.9392 6.07494 10.7118 6.35444 10.7118C6.63394 10.7118 6.86078 10.9392 6.86078 11.2182C6.86078 11.4977 6.63394 11.7245 6.35444 11.7245ZM2.32749 7.93252H1.62114C1.15986 7.93252 0.784663 7.55631 0.784663 7.09351V4.75268C0.784663 4.29039 1.15986 3.91418 1.62114 3.91418H2.32749V7.93303V7.93252ZM11.0872 3.40784H10.3626C10.2928 2.50604 9.88871 1.66956 9.22388 1.04878C8.55399 0.423451 7.68156 0.078125 6.76711 0.078125H5.94126C5.02731 0.078125 4.15488 0.423451 3.48499 1.04878C2.82016 1.66905 2.4161 2.50655 2.34623 3.40784H1.62114C0.880362 3.40784 0.27832 4.0114 0.27832 4.75268V7.09351C0.27832 7.8353 0.880362 8.43886 1.62114 8.43886H2.58066C2.72041 8.43886 2.83383 8.32544 2.83383 8.18569V3.67063L2.85054 3.45391C2.90877 2.67668 3.25714 1.95413 3.83032 1.41892C4.40603 0.881185 5.15592 0.584468 5.94126 0.584468L6.76711 0.584974C7.55295 0.584974 8.30285 0.881185 8.87856 1.41842C9.45174 1.95413 9.8001 2.67718 9.85833 3.45442L9.87504 3.6605L9.87453 8.17556L9.85783 8.39076C9.75808 9.64598 8.9216 10.7088 7.75751 11.0891L7.36155 11.165C7.3337 10.6323 6.89471 10.2055 6.35444 10.2055C5.79594 10.2055 5.34175 10.6592 5.34175 11.2177C5.34175 11.7772 5.79594 12.2304 6.35444 12.2304C6.73521 12.2304 7.06382 12.0172 7.23649 11.7053L7.88359 11.5782C9.27097 11.1275 10.2432 9.89561 10.3616 8.43886H11.0877C11.8285 8.43886 12.4306 7.8353 12.4306 7.09351V4.75268C12.4306 4.0114 11.828 3.40784 11.0872 3.40784Z" fill="#197ACF"/>
</svg>
