<svg width="16" height="12" viewBox="0 0 16 12" fill="none" xmlns="http://www.w3.org/2000/svg">
<path fill-rule="evenodd" clip-rule="evenodd" d="M14.5746 10.3027L12.7688 8.94843V7.35756L14.5746 6.07126V10.3027ZM12.1669 7.20286V9.70082C12.1669 10.1986 11.7618 10.6037 11.264 10.6037H2.23526C1.73748 10.6037 1.33239 10.1986 1.33239 9.70082V6.69123C1.33239 6.19345 1.73748 5.78836 2.23526 5.78836H11.264C11.7618 5.78836 12.1669 6.19345 12.1669 6.69123V7.20286ZM2.53622 3.07973C2.53622 1.91802 3.48123 0.973012 4.64294 0.973012C5.80464 0.973012 6.74965 1.91802 6.74965 3.07973C6.74965 4.24143 5.80464 5.18644 4.64294 5.18644C3.48123 5.18644 2.53622 4.24143 2.53622 3.07973ZM7.77652 5.18644H6.32469C6.62686 4.94507 6.87425 4.64291 7.05061 4.295C7.22697 4.64291 7.47436 4.94507 7.77652 5.18644ZM9.45828 0.973012C10.62 0.973012 11.565 1.91802 11.565 3.07973C11.565 4.24143 10.62 5.18644 9.45828 5.18644C8.29658 5.18644 7.35157 4.24143 7.35157 3.07973C7.35157 1.91802 8.29658 0.973012 9.45828 0.973012ZM15.0134 5.22015C14.9129 5.16838 14.7919 5.17681 14.701 5.24242L12.7616 6.62382C12.7261 5.82568 12.0712 5.18644 11.264 5.18644H11.14C11.7606 4.68986 12.1669 3.93505 12.1669 3.07973C12.1669 1.58637 10.9516 0.371094 9.45828 0.371094C8.40372 0.371094 7.49783 0.983244 7.05061 1.86445C6.60338 0.983244 5.6975 0.371094 4.64294 0.371094C3.14958 0.371094 1.9343 1.58637 1.9343 3.07973C1.9343 3.93505 2.3406 4.68986 2.96118 5.18644H2.23526C1.40522 5.18644 0.730469 5.86119 0.730469 6.69123V9.70082C0.730469 10.5309 1.40522 11.2056 2.23526 11.2056H11.264C12.0941 11.2056 12.7688 10.5309 12.7688 9.70082L14.695 11.1454C14.7479 11.1852 14.8117 11.2056 14.8755 11.2056C14.9213 11.2056 14.9676 11.1948 15.0104 11.1737C15.1121 11.1226 15.1765 11.0184 15.1765 10.9047V5.4874C15.1765 5.37424 15.1139 5.27191 15.0134 5.22015Z" fill="#197ACF"/>
</svg>
