<svg width="14" height="12" viewBox="0 0 14 12" fill="none" xmlns="http://www.w3.org/2000/svg">
<path fill-rule="evenodd" clip-rule="evenodd" d="M6.70812 2.51599V9.81006C6.33256 9.42406 5.81479 9.19129 5.25697 9.19129H1.19374V1.06484H5.25697C6.05685 1.06484 6.70812 1.71611 6.70812 2.51599ZM8.73974 1.06484H12.803V9.19129H8.73974C8.17146 9.19129 7.65776 9.42754 7.28858 9.80542V2.51599C7.28858 1.71611 7.93986 1.06484 8.73974 1.06484ZM0.903512 9.77175H5.25697C5.83685 9.77175 6.36043 10.1183 6.59087 10.6546C6.66865 10.8346 6.70812 11.0261 6.70812 11.2229C6.70812 11.3831 6.83815 11.5131 6.99835 11.5131C7.15856 11.5131 7.28858 11.3831 7.28858 11.2229C7.28858 10.423 7.93986 9.77175 8.73974 9.77175H13.0932C13.2534 9.77175 13.3834 9.64173 13.3834 9.48152V0.774606C13.3834 0.614398 13.2534 0.484375 13.0932 0.484375H8.73974C7.99675 0.484375 7.35243 0.889537 6.99835 1.48625C6.64427 0.889537 5.99996 0.484375 5.25697 0.484375H0.903512C0.743305 0.484375 0.613281 0.614398 0.613281 0.774606V9.48152C0.613281 9.64173 0.743305 9.77175 0.903512 9.77175Z" fill="white"/>
</svg>
