<svg width="22" height="22" viewBox="0 0 22 22" fill="none" xmlns="http://www.w3.org/2000/svg">
<path d="M21 3H14V4.54105H20.4V14.9432H5.6V14.3653H4V15.5211C4 16.0989 4.4 16.4842 5 16.4842H10.7V19.0847H8C7.6 19.0847 7.2 19.47 7.2 19.8553C7.2 20.2405 7.6 20.6258 8 20.6258H18C18.4 20.6258 18.8 20.2405 18.8 19.8553C18.8 19.47 18.4 19.0847 18 19.0847H15.3V16.4842H21C21.6 16.4842 22 16.0989 22 15.5211V3.96316C22 3.38526 21.5 3 21 3ZM13.7 19.0847H12.3V16.4842H13.7V19.0847Z" fill="#999999"/>
<g clip-path="url(#clip0)">
<path d="M8.9 4.20077V8.10846C8.9 9.47615 7.9 10.6485 6.6 10.8438C6.4 10.6485 6.1 10.4531 5.8 10.4531C5.2 10.4531 4.8 10.8438 4.8 11.43C4.8 12.0162 5.2 12.4069 5.8 12.4069C6.2 12.4069 6.5 12.2115 6.7 11.9185C8.2 11.6254 9.5 10.5508 9.8 9.08539H10.8C11.5 9.08539 12 8.59692 12 7.91308V5.86154C12 5.17769 11.5 4.68923 10.8 4.68923H10.2V4.20077C10.3 1.85615 8.4 0 6 0C3.6 0 1.7 1.85615 1.7 4.10308V4.68923H1.2C0.5 4.68923 0 5.17769 0 5.86154V7.91308C0 8.59692 0.5 9.08539 1.2 9.08539H2.8C2.9 9.08539 3 8.98769 3 8.89V4.20077C3 2.63769 4.3 1.36769 5.9 1.36769C7.5 1.36769 8.9 2.54 8.9 4.20077Z" fill="#999999"/>
</g>
<defs>
<clipPath id="clip0">
<rect width="12" height="12.7" fill="white"/>
</clipPath>
</defs>
</svg>
