<svg width="14" height="12" viewBox="0 0 14 12" fill="none" xmlns="http://www.w3.org/2000/svg">
<path fill-rule="evenodd" clip-rule="evenodd" d="M13.4167 10.375L11.6667 9.0625V7.52075L13.4167 6.27417V10.375ZM11.0833 7.37083V9.79167C11.0833 10.2741 10.6908 10.6667 10.2083 10.6667H1.45833C0.975917 10.6667 0.583333 10.2741 0.583333 9.79167V6.875C0.583333 6.39258 0.975917 6 1.45833 6H10.2083C10.6908 6 11.0833 6.39258 11.0833 6.875V7.37083ZM1.75 3.375C1.75 2.24917 2.66583 1.33333 3.79167 1.33333C4.9175 1.33333 5.83333 2.24917 5.83333 3.375C5.83333 4.50083 4.9175 5.41667 3.79167 5.41667C2.66583 5.41667 1.75 4.50083 1.75 3.375ZM6.8285 5.41667H5.4215C5.71433 5.18275 5.95408 4.88992 6.125 4.55275C6.29592 4.88992 6.53567 5.18275 6.8285 5.41667ZM8.45833 1.33333C9.58417 1.33333 10.5 2.24917 10.5 3.375C10.5 4.50083 9.58417 5.41667 8.45833 5.41667C7.3325 5.41667 6.41667 4.50083 6.41667 3.375C6.41667 2.24917 7.3325 1.33333 8.45833 1.33333ZM13.8419 5.44933C13.7445 5.39917 13.6272 5.40733 13.5392 5.47092L11.6597 6.80967C11.6252 6.03617 10.9906 5.41667 10.2083 5.41667H10.0882C10.6896 4.93542 11.0833 4.20392 11.0833 3.375C11.0833 1.92775 9.90558 0.75 8.45833 0.75C7.43633 0.75 6.55842 1.34325 6.125 2.19725C5.69158 1.34325 4.81367 0.75 3.79167 0.75C2.34442 0.75 1.16667 1.92775 1.16667 3.375C1.16667 4.20392 1.56042 4.93542 2.16183 5.41667H1.45833C0.653917 5.41667 0 6.07058 0 6.875V9.79167C0 10.5961 0.653917 11.25 1.45833 11.25H10.2083C11.0127 11.25 11.6667 10.5961 11.6667 9.79167L13.5333 11.1917C13.5847 11.2302 13.6465 11.25 13.7083 11.25C13.7527 11.25 13.7976 11.2395 13.839 11.2191C13.9376 11.1695 14 11.0686 14 10.9583V5.70833C14 5.59867 13.9393 5.4995 13.8419 5.44933Z" fill="white"/>
</svg>
