<svg width="17" height="17" viewBox="0 0 17 17" fill="none" xmlns="http://www.w3.org/2000/svg">
<g clip-path="url(#clip0)">
<path d="M5.23241 0.00585938H2.00204C1.47318 0.00630466 0.966087 0.216596 0.592121 0.590565C0.218152 0.964531 0.00786106 1.47162 0.00741577 2.00049V5.23086C0.00786106 5.75973 0.218152 6.26681 0.592121 6.64078C0.966087 7.01475 1.47318 7.22504 2.00204 7.22549H5.23241C5.76129 7.22504 6.26837 7.01475 6.64234 6.64078C7.0163 6.26681 7.2266 5.75973 7.22704 5.23086V2.00049C7.2266 1.47162 7.0163 0.964531 6.64234 0.590565C6.26837 0.216596 5.76129 0.00630466 5.23241 0.00585938ZM5.70741 5.23086C5.7056 5.35628 5.65497 5.47604 5.56628 5.56472C5.4776 5.65342 5.35783 5.70404 5.23241 5.70586H2.00204C1.87663 5.70404 1.75687 5.65342 1.66817 5.56472C1.57948 5.47604 1.52886 5.35628 1.52704 5.23086V2.00049C1.52886 1.87508 1.57949 1.75531 1.66817 1.66662C1.75687 1.57794 1.87663 1.5273 2.00204 1.52549H5.23241C5.35782 1.5273 5.47759 1.57794 5.56628 1.66662C5.65497 1.75531 5.7056 1.87508 5.70741 2.00049V5.23086Z" fill="#999999"/>
</g>
<g clip-path="url(#clip1)">
<path d="M14.2324 0.00585938H11.002C10.4732 0.00630466 9.96609 0.216596 9.59212 0.590565C9.21815 0.964531 9.00786 1.47162 9.00742 2.00049V5.23086C9.00786 5.75973 9.21815 6.26681 9.59212 6.64078C9.96609 7.01475 10.4732 7.22504 11.002 7.22549H14.2324C14.7613 7.22504 15.2684 7.01475 15.6423 6.64078C16.0163 6.26681 16.2266 5.75973 16.227 5.23086V2.00049C16.2266 1.47162 16.0163 0.964531 15.6423 0.590565C15.2684 0.216596 14.7613 0.00630466 14.2324 0.00585938ZM14.7074 5.23086C14.7056 5.35628 14.655 5.47604 14.5663 5.56472C14.4776 5.65342 14.3578 5.70404 14.2324 5.70586H11.002C10.8766 5.70404 10.7569 5.65342 10.6682 5.56472C10.5795 5.47604 10.5289 5.35628 10.527 5.23086V2.00049C10.5289 1.87508 10.5795 1.75531 10.6682 1.66662C10.7569 1.57794 10.8766 1.5273 11.002 1.52549H14.2324C14.3578 1.5273 14.4776 1.57794 14.5663 1.66662C14.655 1.75531 14.7056 1.87508 14.7074 2.00049V5.23086Z" fill="#999999"/>
</g>
<g clip-path="url(#clip2)">
<path d="M14.2324 9.00586H11.002C10.4732 9.0063 9.96609 9.2166 9.59212 9.59056C9.21815 9.96453 9.00786 10.4716 9.00742 11.0005V14.2309C9.00786 14.7597 9.21815 15.2668 9.59212 15.6408C9.96609 16.0147 10.4732 16.225 11.002 16.2255H14.2324C14.7613 16.225 15.2684 16.0147 15.6423 15.6408C16.0163 15.2668 16.2266 14.7597 16.227 14.2309V11.0005C16.2266 10.4716 16.0163 9.96453 15.6423 9.59056C15.2684 9.2166 14.7613 9.0063 14.2324 9.00586ZM14.7074 14.2309C14.7056 14.3563 14.655 14.476 14.5663 14.5647C14.4776 14.6534 14.3578 14.704 14.2324 14.7059H11.002C10.8766 14.704 10.7569 14.6534 10.6682 14.5647C10.5795 14.476 10.5289 14.3563 10.527 14.2309V11.0005C10.5289 10.8751 10.5795 10.7553 10.6682 10.6666C10.7569 10.5779 10.8766 10.5273 11.002 10.5255H14.2324C14.3578 10.5273 14.4776 10.5779 14.5663 10.6666C14.655 10.7553 14.7056 10.8751 14.7074 11.0005V14.2309Z" fill="#999999"/>
</g>
<g clip-path="url(#clip3)">
<path d="M5.23241 9.00586H2.00204C1.47318 9.0063 0.966087 9.2166 0.592121 9.59056C0.218152 9.96453 0.00786106 10.4716 0.00741577 11.0005V14.2309C0.00786106 14.7597 0.218152 15.2668 0.592121 15.6408C0.966087 16.0147 1.47318 16.225 2.00204 16.2255H5.23241C5.76129 16.225 6.26837 16.0147 6.64234 15.6408C7.0163 15.2668 7.2266 14.7597 7.22704 14.2309V11.0005C7.2266 10.4716 7.0163 9.96453 6.64234 9.59056C6.26837 9.2166 5.76129 9.0063 5.23241 9.00586ZM5.70741 14.2309C5.7056 14.3563 5.65497 14.476 5.56628 14.5647C5.4776 14.6534 5.35783 14.704 5.23241 14.7059H2.00204C1.87663 14.704 1.75687 14.6534 1.66817 14.5647C1.57948 14.476 1.52886 14.3563 1.52704 14.2309V11.0005C1.52886 10.8751 1.57949 10.7553 1.66817 10.6666C1.75687 10.5779 1.87663 10.5273 2.00204 10.5255H5.23241C5.35782 10.5273 5.47759 10.5779 5.56628 10.6666C5.65497 10.7553 5.7056 10.8751 5.70741 11.0005V14.2309Z" fill="#999999"/>
</g>
<defs>
<clipPath id="clip0">
<rect width="7.6" height="7.6" fill="white"/>
</clipPath>
<clipPath id="clip1">
<rect width="7.6" height="7.6" fill="white" transform="translate(9)"/>
</clipPath>
<clipPath id="clip2">
<rect width="7.6" height="7.6" fill="white" transform="translate(9 9)"/>
</clipPath>
<clipPath id="clip3">
<rect width="7.6" height="7.6" fill="white" transform="translate(0 9)"/>
</clipPath>
</defs>
</svg>
