<svg width="12" height="12" viewBox="0 0 12 12" fill="none" xmlns="http://www.w3.org/2000/svg">
<path d="M5.9985 0.400062C4.56383 0.399563 3.18444 0.953381 2.14844 1.94584L2.14872 0.750062C2.14829 0.626611 2.09894 0.508364 2.01149 0.421225C1.92404 0.334085 1.80562 0.285156 1.68217 0.285156C1.55872 0.285156 1.4403 0.334085 1.35285 0.421225C1.2654 0.508364 1.21605 0.626611 1.21562 0.750062L1.21503 3.0834C1.2151 3.20711 1.26427 3.32575 1.35176 3.41323C1.43924 3.50071 1.55787 3.54988 1.68159 3.54995H4.01492C4.07619 3.54995 4.13686 3.53788 4.19346 3.51443C4.25007 3.49099 4.3015 3.45662 4.34482 3.4133C4.38815 3.36997 4.42251 3.31854 4.44596 3.26194C4.46941 3.20533 4.48147 3.14466 4.48147 3.0834C4.48147 3.02213 4.46941 2.96146 4.44596 2.90485C4.42251 2.84825 4.38815 2.79682 4.34482 2.75349C4.3015 2.71017 4.25007 2.67581 4.19346 2.65236C4.13686 2.62891 4.07619 2.61685 4.01492 2.61685H2.80469C3.66421 1.79358 4.80831 1.33381 5.9985 1.3334C6.92147 1.3334 7.82372 1.60709 8.59114 2.11986C9.35857 2.63263 9.95671 3.36146 10.3099 4.21417C10.6631 5.06689 10.7556 6.00519 10.5755 6.91043C10.3955 7.81567 9.95101 8.64719 9.29838 9.29984C8.64575 9.95249 7.81424 10.397 6.909 10.577C6.00377 10.7571 5.06546 10.6647 4.21274 10.3115C3.36001 9.95835 2.63117 9.36024 2.11837 8.59282C1.60558 7.82541 1.33186 6.92318 1.33183 6.0002V6.00006C1.33205 5.93865 1.32014 5.87779 1.29678 5.82099C1.27343 5.76418 1.23909 5.71255 1.19574 5.66904C1.15239 5.62554 1.10088 5.59102 1.04416 5.56746C0.987436 5.54391 0.926623 5.53179 0.865206 5.53179C0.803789 5.53179 0.742976 5.54391 0.686255 5.56746C0.629534 5.59102 0.578021 5.62554 0.534669 5.66904C0.491318 5.71255 0.456981 5.76418 0.433628 5.82099C0.410275 5.87779 0.398366 5.93865 0.398583 6.00006H0.398438C0.398426 7.10765 0.726854 8.19037 1.34219 9.1113C1.95752 10.0322 2.83213 10.75 3.85541 11.1739C4.87868 11.5977 6.00467 11.7087 7.09098 11.4926C8.17729 11.2765 9.17513 10.7432 9.95831 9.95998C10.7415 9.1768 11.2749 8.17897 11.4909 7.09266C11.707 6.00635 11.5961 4.88036 11.1723 3.85708C10.7484 2.8338 10.0307 1.95919 9.10973 1.34385C8.1888 0.728502 7.10609 0.400062 5.9985 0.400062Z" fill="#999999"/>
<path d="M5.77905 2.80859C5.65533 2.80866 5.5367 2.85783 5.44922 2.94532C5.36174 3.0328 5.31256 3.15143 5.3125 3.27515V6.37069C5.3125 6.46639 5.34189 6.55979 5.39671 6.63824C5.45152 6.71669 5.52911 6.77641 5.61898 6.80933L7.61051 7.53621C7.66189 7.55458 7.71603 7.56402 7.77058 7.56413C7.88032 7.5642 7.98657 7.52561 8.07067 7.45512C8.15478 7.38463 8.21135 7.28677 8.23046 7.17871C8.24957 7.07065 8.22999 6.95931 8.17517 6.86426C8.12034 6.7692 8.03377 6.6965 7.93066 6.65894L6.24561 6.04427V3.27515C6.24554 3.15143 6.19637 3.0328 6.10889 2.94531C6.0214 2.85783 5.90277 2.80866 5.77905 2.80859Z" fill="#999999"/>
</svg>
