<svg width="14" height="14" viewBox="0 0 14 14" fill="none" xmlns="http://www.w3.org/2000/svg">
<g clip-path="url(#clip0)">
<path fill-rule="evenodd" clip-rule="evenodd" d="M7.92668 5.69922H3.57289C3.42269 5.69922 3.30078 5.82112 3.30078 5.97133C3.30078 6.12154 3.42269 6.24344 3.57289 6.24344H7.92668C8.07688 6.24344 8.19879 6.12154 8.19879 5.97133C8.19879 5.82112 8.07688 5.69922 7.92668 5.69922Z" fill="#197ACF"/>
<path fill-rule="evenodd" clip-rule="evenodd" d="M7.92668 7.33203H3.57289C3.42269 7.33203 3.30078 7.45394 3.30078 7.60414C3.30078 7.75435 3.42269 7.87625 3.57289 7.87625H7.92668C8.07688 7.87625 8.19879 7.75435 8.19879 7.60414C8.19879 7.45394 8.07688 7.33203 7.92668 7.33203Z" fill="#197ACF"/>
<path fill-rule="evenodd" clip-rule="evenodd" d="M7.92668 8.96484H3.57289C3.42269 8.96484 3.30078 9.08675 3.30078 9.23695C3.30078 9.38716 3.42269 9.50907 3.57289 9.50907H7.92668C8.07688 9.50907 8.19879 9.38716 8.19879 9.23695C8.19879 9.08675 8.07688 8.96484 7.92668 8.96484Z" fill="#197ACF"/>
<path fill-rule="evenodd" clip-rule="evenodd" d="M11.4627 8.69201C11.4627 8.84222 11.3403 8.96412 11.1906 8.96412H9.28584V6.24301H10.6464C10.7966 6.24301 10.9185 6.1211 10.9185 5.9709C10.9185 5.82069 10.7966 5.69879 10.6464 5.69879H9.28584V4.88245C9.28584 4.78667 9.26624 4.69578 9.23577 4.61034H10.6464C10.7966 4.61034 10.9185 4.48844 10.9185 4.33823C10.9185 4.18802 10.7966 4.06612 10.6464 4.06612H8.4695H5.47627V1.61712C5.47627 1.46691 5.59873 1.345 5.74839 1.345H11.1906C11.3403 1.345 11.4627 1.46691 11.4627 1.61712V8.69201ZM8.74161 11.9573C8.74161 12.1076 8.61916 12.2295 8.4695 12.2295H3.02727C2.87761 12.2295 2.75516 12.1076 2.75516 11.9573V4.88245C2.75516 4.73225 2.87761 4.61034 3.02727 4.61034H8.4695C8.61916 4.61034 8.74161 4.73225 8.74161 4.88245V11.9573ZM12.0069 1.61712C12.0069 1.16704 11.6407 0.800781 11.1906 0.800781H5.74839C5.29831 0.800781 4.93205 1.16704 4.93205 1.61712V4.06612H3.02727C2.5772 4.06612 2.21094 4.43238 2.21094 4.88245V11.9573C2.21094 12.4074 2.5772 12.7737 3.02727 12.7737H8.4695C8.91957 12.7737 9.28584 12.4074 9.28584 11.9573V9.50835H11.1906C11.6407 9.50835 12.0069 9.14209 12.0069 8.69201V1.61712Z" fill="#197ACF"/>
<path fill-rule="evenodd" clip-rule="evenodd" d="M10.6454 2.43359H6.29164C6.14144 2.43359 6.01953 2.5555 6.01953 2.70571C6.01953 2.85591 6.14144 2.97782 6.29164 2.97782H10.6454C10.7956 2.97782 10.9175 2.85591 10.9175 2.70571C10.9175 2.5555 10.7956 2.43359 10.6454 2.43359Z" fill="#197ACF"/>
</g>
<defs>
<clipPath id="clip0">
<rect width="13.0613" height="13.0613" fill="white" transform="translate(0.578125 0.257812)"/>
</clipPath>
</defs>
</svg>
