<svg width="25" height="25" viewBox="0 0 25 25" fill="none" xmlns="http://www.w3.org/2000/svg">
<path d="M10.7266 17.1836C10.7266 17.7359 11.1743 18.1836 11.7266 18.1836H13.7266C14.2788 18.1836 14.7266 17.7359 14.7266 17.1836C14.7266 16.6313 14.2788 16.1836 13.7266 16.1836H11.7266C11.1743 16.1836 10.7266 16.6313 10.7266 17.1836ZM4.72656 6.18359C4.17428 6.18359 3.72656 6.63131 3.72656 7.18359C3.72656 7.73588 4.17428 8.18359 4.72656 8.18359H20.7266C21.2788 8.18359 21.7266 7.73588 21.7266 7.18359C21.7266 6.63131 21.2788 6.18359 20.7266 6.18359H4.72656ZM6.72656 12.1836C6.72656 12.7359 7.17428 13.1836 7.72656 13.1836H17.7266C18.2788 13.1836 18.7266 12.7359 18.7266 12.1836C18.7266 11.6313 18.2788 11.1836 17.7266 11.1836H7.72656C7.17428 11.1836 6.72656 11.6313 6.72656 12.1836Z" fill="white"/>
</svg>
