<svg width="15" height="14" viewBox="0 0 15 14" fill="none" xmlns="http://www.w3.org/2000/svg">
<path fill-rule="evenodd" clip-rule="evenodd" d="M7.05482 12.3721C8.41047 12.3721 9.6664 11.9481 10.6924 11.2272L10.6963 11.2312L13.1493 13.7173C13.4661 14.0384 13.9832 14.0419 14.3043 13.7251C14.6254 13.4083 14.6288 12.8911 14.312 12.5701L11.8958 10.1212C12.7858 9.05682 13.3206 7.69348 13.3206 6.20607C13.3206 2.79725 10.512 0.0400391 7.05482 0.0400391C3.59768 0.0400391 0.789062 2.79725 0.789062 6.20607C0.789062 9.61488 3.59768 12.3721 7.05482 12.3721ZM2.42251 6.20605C2.42251 8.70591 4.49312 10.7386 7.05482 10.7386C9.61652 10.7386 11.6871 8.70591 11.6871 6.20605C11.6871 3.70619 9.61652 1.67347 7.05482 1.67347C4.49312 1.67347 2.42251 3.70619 2.42251 6.20605Z" fill="#999999"/>
</svg>
