<svg width="22" height="19" viewBox="0 0 22 19" fill="none" xmlns="http://www.w3.org/2000/svg">
<path fill-rule="evenodd" clip-rule="evenodd" d="M20.7096 6.84449L11.6377 11.5772C11.3048 11.7512 10.6962 11.7512 10.3633 11.5772L4.85594 8.70348L11.1023 7.23449C11.3432 7.17738 11.4914 6.9373 11.4343 6.69723C11.3789 6.45805 11.1397 6.30901 10.8988 6.36524L3.64487 8.07162L1.29146 6.84449C1.25755 6.82664 1.23256 6.81058 1.21382 6.80344C1.23256 6.78916 1.25755 6.7722 1.29146 6.75435L10.3633 2.02253C10.6962 1.84761 11.3048 1.84761 11.6377 2.02253L20.7096 6.75435C20.7435 6.7722 20.7685 6.78916 20.7872 6.7963C20.7685 6.81058 20.7435 6.82664 20.7096 6.84449ZM17.2317 12.3849C17.304 12.6785 17.129 13.0747 16.8658 13.2166L11.6003 16.044C11.2861 16.2126 10.7149 16.2126 10.4008 16.044L5.13528 13.2166C4.87201 13.0747 4.69798 12.6785 4.76313 12.409L5.49137 10.0422L9.9501 12.3679C10.2446 12.5223 10.6221 12.5991 11.0005 12.5991C11.3789 12.5991 11.7564 12.5223 12.0509 12.3679L16.5097 10.0422L17.2317 12.3849ZM1.6297 15.2782C1.38428 15.2782 1.18347 15.0783 1.18347 14.832C1.18347 14.5857 1.38428 14.3858 1.6297 14.3858C1.87513 14.3858 2.07593 14.5857 2.07593 14.832C2.07593 15.0783 1.87513 15.2782 1.6297 15.2782ZM21.1228 5.96363L12.0509 1.23092C11.4619 0.923025 10.5391 0.923025 9.9501 1.23092L0.878253 5.96363C0.505205 6.15819 0.291016 6.46341 0.291016 6.79987C0.291016 7.13632 0.505205 7.44065 0.878253 7.6361L2.9077 8.69456L1.29146 13.5415C0.718504 13.6923 0.291016 14.2108 0.291016 14.832C0.291016 15.413 0.664956 15.9029 1.18347 16.0877V17.5094C1.18347 17.7557 1.38339 17.9556 1.6297 17.9556C1.87602 17.9556 2.07593 17.7557 2.07593 17.5094V16.0877C2.59445 15.9029 2.96839 15.413 2.96839 14.832C2.96839 14.3001 2.65514 13.8432 2.20445 13.6281L3.70913 9.11223L4.68816 9.62271L3.90369 12.1707C3.73323 12.8623 4.08843 13.6673 4.71315 14.0029L9.97955 16.8302C10.2705 16.9864 10.6355 17.0649 11.0005 17.0649C11.3655 17.0649 11.7306 16.9864 12.0224 16.8302L17.2879 14.0029C17.9126 13.6673 18.2687 12.8623 18.0902 12.1466L17.3129 9.62271L21.1228 7.6361C21.4958 7.44065 21.71 7.13632 21.71 6.79987C21.71 6.46341 21.4958 6.15819 21.1228 5.96363Z" fill="#999999" stroke="#999999" stroke-width="0.5"/>
</svg>
