<svg width="14" height="14" viewBox="0 0 14 14" fill="none" xmlns="http://www.w3.org/2000/svg">
<path fill-rule="evenodd" clip-rule="evenodd" d="M13.3667 8.07137C13.3667 8.59965 12.9379 9.02956 12.4108 9.02956H11.6031V4.43768H12.4103C12.9379 4.43768 13.3667 4.86759 13.3667 5.39587V8.0708V8.07137ZM7.00195 13.3634C6.68256 13.3634 6.42334 13.1042 6.42334 12.7848C6.42334 12.4659 6.68256 12.2061 7.00195 12.2061C7.32135 12.2061 7.58057 12.4659 7.58057 12.7848C7.58057 13.1042 7.32135 13.3634 7.00195 13.3634ZM2.40024 9.03014H1.59308C1.06596 9.03014 0.637207 8.60023 0.637207 8.07137V5.39645C0.637207 4.86817 1.06596 4.43826 1.59308 4.43826H2.40024V9.03072V9.03014ZM12.4103 3.85965H11.5823C11.5024 2.82914 11.0407 1.87327 10.281 1.16389C9.51545 0.449302 8.5185 0.0546875 7.47352 0.0546875H6.5298C5.48541 0.0546875 4.48846 0.449302 3.72295 1.16389C2.96323 1.87269 2.5015 2.82972 2.42165 3.85965H1.59308C0.746565 3.85965 0.0585938 4.54936 0.0585938 5.39645V8.07137C0.0585938 8.91904 0.746565 9.60875 1.59308 9.60875H2.68955C2.84925 9.60875 2.97885 9.47914 2.97885 9.31944V4.15995L2.99795 3.9123C3.06449 3.02413 3.46258 2.19845 4.11757 1.58686C4.77545 0.972368 5.63238 0.633301 6.5298 0.633301L7.47352 0.633879C8.37153 0.633879 9.22846 0.972368 9.88634 1.58628C10.5413 2.19845 10.9394 3.02471 11.006 3.91288L11.0251 4.14838L11.0245 9.30787L11.0054 9.55378C10.8914 10.9882 9.93552 12.2027 8.60529 12.6372L8.15281 12.724C8.12099 12.1153 7.61933 11.6275 7.00195 11.6275C6.36374 11.6275 5.84473 12.146 5.84473 12.7842C5.84473 13.4235 6.36374 13.9414 7.00195 13.9414C7.43707 13.9414 7.81259 13.6978 8.0099 13.3414L8.74937 13.1962C10.3348 12.6812 11.4457 11.2734 11.5811 9.60875H12.4108C13.2573 9.60875 13.9453 8.91904 13.9453 8.07137V5.39645C13.9453 4.54936 13.2568 3.85965 12.4103 3.85965Z" fill="white"/>
</svg>
