<svg width="25" height="25" viewBox="0 0 25 25" fill="none" xmlns="http://www.w3.org/2000/svg">
<path d="M12.7109 2.19531C7.19094 2.19531 2.71094 6.67531 2.71094 12.1953C2.71094 17.7153 7.19094 22.1953 12.7109 22.1953C18.2309 22.1953 22.7109 17.7153 22.7109 12.1953C22.7109 6.67531 18.2309 2.19531 12.7109 2.19531ZM13.7109 19.1953H11.7109V17.1953H13.7109V19.1953ZM15.7809 11.4453L14.8809 12.3653C14.1609 13.0953 13.7109 13.6953 13.7109 15.1953H11.7109V14.6953C11.7109 13.5953 12.1609 12.5953 12.8809 11.8653L14.1209 10.6053C14.4909 10.2453 14.7109 9.74531 14.7109 9.19531C14.7109 8.09531 13.8109 7.19531 12.7109 7.19531C11.6109 7.19531 10.7109 8.09531 10.7109 9.19531H8.71094C8.71094 6.98531 10.5009 5.19531 12.7109 5.19531C14.9209 5.19531 16.7109 6.98531 16.7109 9.19531C16.7109 10.0753 16.3509 10.8753 15.7809 11.4453Z" fill="url(#paint0_linear)"/>
<defs>
<linearGradient id="paint0_linear" x1="2.70206" y1="2.19531" x2="24.2731" y2="20.3262" gradientUnits="userSpaceOnUse">
<stop stop-color="white"/>
<stop offset="1" stop-color="#F8FDFF"/>
</linearGradient>
</defs>
</svg>
