<svg width="22" height="22" viewBox="0 0 22 22" fill="none" xmlns="http://www.w3.org/2000/svg">
<path fill-rule="evenodd" clip-rule="evenodd" d="M10.995 1.68598L19.5433 11.4561H18.7269C18.476 11.4561 18.2724 11.6588 18.2724 11.9106V20.5471H13.7269V14.6379C13.7269 14.3861 13.5241 14.1834 13.2723 14.1834H8.7268C8.47589 14.1834 8.27225 14.3861 8.27225 14.6379V20.5471H3.72674V11.9106C3.72674 11.6588 3.52401 11.4561 3.27219 11.4561H2.36309L4.54493 8.54606C4.60402 8.46787 4.63584 8.37242 4.63584 8.27423V4.18328H6.45404V5.54693C6.45404 5.73511 6.57041 5.9033 6.74587 5.97057C6.92314 6.03875 7.12132 5.98966 7.24678 5.85057L10.995 1.68598ZM6.90859 3.27418H4.18129C3.93038 3.27418 3.72674 3.47691 3.72674 3.72873V8.12241L1.09035 11.6379C0.98762 11.7752 0.971256 11.9597 1.04762 12.1134C1.12489 12.2679 1.28217 12.3652 1.45399 12.3652H2.81764V21.0016C2.81764 21.2526 3.02128 21.4562 3.27219 21.4562H8.7268C8.97862 21.4562 9.18135 21.2526 9.18135 21.0016V15.0925H12.8178V21.0016C12.8178 21.2526 13.0214 21.4562 13.2723 21.4562H18.7269C18.9787 21.4562 19.1815 21.2526 19.1815 21.0016V12.3652H20.5451C20.7242 12.3652 20.8851 12.2606 20.9588 12.0979C21.0333 11.9352 21.0051 11.7452 20.8878 11.6106L11.3423 0.701422C11.2568 0.604148 11.1332 0.547784 11.0032 0.546875C10.8805 0.548693 10.7486 0.600512 10.6623 0.696877L7.36315 4.36146V3.72873C7.36315 3.47691 7.16042 3.27418 6.90859 3.27418Z" fill="#197ACF"/>
<path d="M6.90859 3.27418H4.18129C3.93038 3.27418 3.72674 3.47691 3.72674 3.72873V8.12241L1.09035 11.6379C0.98762 11.7752 0.971256 11.9597 1.04762 12.1134C1.12489 12.2679 1.28217 12.3652 1.45399 12.3652H2.81764V21.0016C2.81764 21.2526 3.02128 21.4562 3.27219 21.4562H8.7268C8.97862 21.4562 9.18135 21.2526 9.18135 21.0016V15.0925H12.8178V21.0016C12.8178 21.2526 13.0214 21.4562 13.2723 21.4562H18.7269C18.9787 21.4562 19.1815 21.2526 19.1815 21.0016V12.3652H20.5451C20.7242 12.3652 20.8851 12.2606 20.9588 12.0979C21.0333 11.9352 21.0051 11.7452 20.8878 11.6106L11.3423 0.701422C11.2568 0.604148 11.1332 0.547784 11.0032 0.546875C10.8805 0.548693 10.7486 0.600512 10.6623 0.696877L7.36315 4.36146V3.72873C7.36315 3.47691 7.16042 3.27418 6.90859 3.27418M10.995 1.68598L19.5433 11.4561H18.7269C18.476 11.4561 18.2724 11.6588 18.2724 11.9106V20.5471H13.7269V14.6379C13.7269 14.3861 13.5241 14.1834 13.2723 14.1834H8.7268C8.47589 14.1834 8.27225 14.3861 8.27225 14.6379V20.5471H3.72674V11.9106C3.72674 11.6588 3.52401 11.4561 3.27219 11.4561H2.36309L4.54493 8.54606C4.60402 8.46787 4.63584 8.37242 4.63584 8.27423V4.18328H6.45404V5.54693C6.45404 5.73511 6.57041 5.9033 6.74587 5.97057C6.92314 6.03875 7.12132 5.98966 7.24678 5.85057L10.995 1.68598V1.68598Z" stroke="#197ACF" stroke-width="0.5"/>
</svg>
