<svg width="11" height="8" viewBox="0 0 11 8" fill="none" xmlns="http://www.w3.org/2000/svg">
<path d="M10.6661 4.25378C10.7162 4.13175 10.7292 3.99766 10.7035 3.86829C10.6777 3.73892 10.6144 3.62002 10.5214 3.52644L7.85478 0.859775C7.79328 0.796102 7.71972 0.745314 7.63838 0.710375C7.55705 0.675435 7.46957 0.657044 7.38105 0.656275C7.29253 0.655506 7.20474 0.672374 7.12281 0.705894C7.04088 0.739415 6.96645 0.788917 6.90385 0.851512C6.84126 0.914107 6.79175 0.988542 6.75823 1.07047C6.72471 1.1524 6.70785 1.24019 6.70861 1.32871C6.70938 1.41723 6.72777 1.50471 6.76271 1.58605C6.79765 1.66738 6.84844 1.74094 6.91211 1.80244L8.44145 3.33244H0.717448C0.540637 3.33244 0.371068 3.40268 0.246044 3.5277C0.121019 3.65273 0.0507813 3.8223 0.0507812 3.99911C0.0507813 4.17592 0.121019 4.34549 0.246044 4.47051C0.371068 4.59554 0.540637 4.66578 0.717448 4.66578H8.44145L6.91278 6.19444C6.84911 6.25594 6.79832 6.3295 6.76338 6.41084C6.72844 6.49218 6.71005 6.57966 6.70928 6.66817C6.70851 6.75669 6.72538 6.84448 6.7589 6.92641C6.79242 7.00834 6.84192 7.08278 6.90452 7.14537C6.96711 7.20797 7.04155 7.25747 7.12348 7.29099C7.20541 7.32451 7.2932 7.34138 7.38172 7.34061C7.47023 7.33984 7.55771 7.32145 7.63905 7.28651C7.72039 7.25157 7.79395 7.20078 7.85545 7.13711L10.5221 4.47044C10.584 4.40849 10.633 4.33484 10.6661 4.25378Z" fill="url(#paint0_linear)"/>
<defs>
<linearGradient id="paint0_linear" x1="10.6198" y1="7.29309" x2="-0.342978" y2="6.03129" gradientUnits="userSpaceOnUse">
<stop stop-color="#197ACF"/>
<stop offset="1" stop-color="#1A8DE9"/>
</linearGradient>
</defs>
</svg>
