<svg width="17" height="18" viewBox="0 0 17 18" fill="none" xmlns="http://www.w3.org/2000/svg">
<path fill-rule="evenodd" clip-rule="evenodd" d="M5.21748 8.4776C4.86768 9.48958 4.6212 10.632 4.48337 11.908L1.92671 11.5393C2.63259 10.4224 4.09703 8.48217 5.21748 8.4776ZM7.96408 5.15695C8.22813 4.92684 8.49386 4.74446 8.75817 4.5814C8.77734 4.60221 8.79747 4.62358 8.82378 4.63876L12.2337 6.60749C12.2595 6.62239 12.2881 6.62915 12.3157 6.63534C12.3071 6.94605 12.282 7.26737 12.2143 7.61082C11.7647 9.89474 10.0421 12.0549 7.09514 14.0329L6.27237 13.5579L8.10047 10.3915C8.17838 10.2566 8.13198 10.0849 7.99753 10.0073C7.86259 9.92941 7.69124 9.97532 7.61334 10.1103L5.78524 13.2766L4.96199 12.8013C5.2015 9.26013 6.21094 6.68825 7.96408 5.15695ZM11.6343 3.70821C11.8026 4.00283 12.2091 4.83768 12.3021 5.99745L9.31741 4.27426C10.3683 3.77485 11.2945 3.70949 11.6343 3.70821ZM10.7118 11.6498C11.2671 12.6218 10.3195 14.8605 9.70524 16.0302L8.10812 14.0007C9.14422 13.2434 10.0103 12.4587 10.7118 11.6498ZM1.22275 11.6167C1.17606 11.6976 1.17241 11.7962 1.21299 11.88C1.23816 11.9309 1.27746 11.9731 1.32569 12.0009C1.35589 12.0184 1.39044 12.0305 1.42593 12.0354L4.42409 12.4674C4.42709 12.4678 4.42967 12.4667 4.43267 12.4671C4.41982 12.6266 4.39968 12.7774 4.3894 12.9403C4.38299 13.047 4.43717 13.1478 4.52973 13.2013L5.50399 13.7638L5.08213 14.4945C5.0045 14.6289 5.05013 14.8007 5.18507 14.8786C5.31952 14.9563 5.49163 14.9101 5.56926 14.7757L5.99113 14.045L6.96539 14.6075C7.05746 14.6606 7.17183 14.6572 7.26104 14.5983C7.3975 14.5082 7.51749 14.4151 7.6492 14.3242C7.65108 14.3266 7.65141 14.3294 7.65329 14.3318L9.52646 16.7122C9.54893 16.7408 9.57625 16.7644 9.60694 16.7821C9.65468 16.8097 9.71086 16.8226 9.76752 16.819C9.8609 16.8125 9.94444 16.76 9.99113 16.6792C10.2277 16.2695 12.2235 12.7024 11.0858 11.209C11.9666 10.084 12.5333 8.91344 12.7686 7.70483C13.2723 5.12024 12.0769 3.34543 12.0257 3.27103C11.9775 3.20161 11.9015 3.15773 11.8167 3.15038C11.7267 3.14321 9.592 2.99542 7.60551 4.7239C6.67649 5.53202 5.9461 6.60809 5.41219 7.93336C3.55006 7.69483 1.45927 11.207 1.22275 11.6167Z" fill="white"/>
</svg>
