<svg width="15" height="15" viewBox="0 0 15 15" fill="none" xmlns="http://www.w3.org/2000/svg">
<path fill-rule="evenodd" clip-rule="evenodd" d="M6.70863 12.8837C8.08786 12.8837 9.36566 12.4525 10.4096 11.7192L10.413 11.7227L12.9094 14.2528C13.2318 14.5796 13.7581 14.5831 14.0849 14.2607C14.4116 13.9383 14.4152 13.412 14.0928 13.0853L11.6345 10.5938C12.5407 9.51051 13.0852 8.12272 13.0852 6.6086C13.0852 3.13949 10.2269 0.333496 6.70863 0.333496C3.19033 0.333496 0.332031 3.13949 0.332031 6.6086C0.332031 10.0777 3.19033 12.8837 6.70863 12.8837ZM1.99318 6.60874C1.99318 9.15283 4.10042 11.2215 6.70743 11.2215C9.31445 11.2215 11.4217 9.15283 11.4217 6.60874C11.4217 4.06466 9.31445 1.99598 6.70743 1.99598C4.10042 1.99598 1.99318 4.06466 1.99318 6.60874Z" fill="white"/>
</svg>
